{"title":"Alarm 2008 DvDRip H264 Feel-Free","uid":6004476,"size":873174264,"categoryP":"video","categoryS":"movies","magnet":"?xt=urn:btih:a7908afcffb2c81468d7bc2f4c31db74b82cdbaa&amp;dn=Alarm+2008+DvDRip+H264+Feel-Free&amp;tr=udp%3A%2F%2Ftracker.openbittorrent.com%3A80&amp;tr=udp%3A%2F%2Fopen.demonii.com%3A1337&amp;tr=udp%3A%2F%2Ftracker.coppersurfer.tk%3A6969&amp;tr=udp%3A%2F%2Fexodus.desync.com%3A6969","seeders":0,"leechers":1,"uploader":"neon","files":8,"time":1291280855,"description":"Language:English\nIMDb:http://www.imdb.com/title/tt1135960/\nSource:DVD\n\nGeneral\nComplete name :Alarm 2008 DvDRip H264 Feel-Free\nFormat : MPEG-4\nFormat profile : Base Media\nCodec ID : isom\nFile size : 831 MiB\nDuration : 1h 44mn\nOverall bit rate : 1 110 Kbps\nVideo #2\nCodec ID : avc1\nCodec ID/Info : Advanced Video Coding\nDuration : 1h 44mn\nBit rate mode : Variable\nBit rate : 943 Kbps\nWidth : 720 pixels\nHeight : 384 pixels\nDisplay aspect ratio : 1.875\nFrame rate mode : Constant\nFrame rate : 29.970 fps\nOriginal frame rate : 29.000 fps\nResolution : 24 bits\nColorimetry : 4:2:0\nScan type : Progressive\nBits/(Pixel*Frame) : 0.114\nStream size : 706 MiB (85%)\nWriting library : 4 / MÃƒÂ¦\nAudio #1\nID : 1\nFormat : AAC\nFormat/Info : Advanced Audio Codec\nFormat version : Version 4\nFormat profile : LC\nFormat settings, SBR : No\nCodec ID : 40\nDuration : 1h 44mn\nBit rate mode : Constant\nBit rate : 160 Kbps\nChannel(s) : 2 channels\nChannel positions : L R\nSampling rate : 48.0 KHz\nResolution : 16 bits\nStream size : 120 MiB (14%)\n\n\nPlot:\nA grieving woman leaves Dublin to the Irish countryside for a fresh start. Soon her new life is disturbed by a vendetta and her own suspicion towards her new neighbors and her old friends\n\n","torrent":{"xt":"urn:btih:a7908afcffb2c81468d7bc2f4c31db74b82cdbaa","amp;dn":"Alarm+2008+DvDRip+H264+Feel-Free","amp;tr":["udp%3A%2F%2Ftracker.openbittorrent.com%3A80","udp%3A%2F%2Fopen.demonii.com%3A1337","udp%3A%2F%2Ftracker.coppersurfer.tk%3A6969","udp%3A%2F%2Fexodus.desync.com%3A6969"],"infoHash":"a7908afcffb2c81468d7bc2f4c31db74b82cdbaa","infoHashBuffer":{"type":"Buffer","data":[167,144,138,252,255,178,200,20,104,215,188,47,76,49,219,116,184,44,219,170]},"announce":[],"urlList":[]}}